<?xml version="1.0" standalone="no"?><svg xmlns="http://www.w3.org/2000/svg" viewBox="0 0 1440 320"><path fill="#0099ff" fill-opacity="0.3" d="M0,64L0,96L36.9,96L36.9,128L73.8,128L73.8,224L110.8,224L110.8,0L147.7,0L147.7,96L184.6,96L184.6,192L221.5,192L221.5,288L258.5,288L258.5,96L295.4,96L295.4,256L332.3,256L332.3,192L369.2,192L369.2,192L406.2,192L406.2,128L443.1,128L443.1,0L480,0L480,160L516.9,160L516.9,32L553.8,32L553.8,288L590.8,288L590.8,96L627.7,96L627.7,320L664.6,320L664.6,0L701.5,0L701.5,64L738.5,64L738.5,288L775.4,288L775.4,224L812.3,224L812.3,192L849.2,192L849.2,96L886.2,96L886.2,256L923.1,256L923.1,96L960,96L960,256L996.9,256L996.9,128L1033.8,128L1033.8,96L1070.8,96L1070.8,256L1107.7,256L1107.7,256L1144.6,256L1144.6,160L1181.5,160L1181.5,288L1218.5,288L1218.5,160L1255.4,160L1255.4,64L1292.3,64L1292.3,192L1329.2,192L1329.2,256L1366.2,256L1366.2,224L1403.1,224L1403.1,192L1440,192L1440,320L1403.1,320L1403.1,320L1366.2,320L1366.2,320L1329.2,320L1329.2,320L1292.3,320L1292.3,320L1255.4,320L1255.4,320L1218.5,320L1218.5,320L1181.5,320L1181.5,320L1144.6,320L1144.6,320L1107.7,320L1107.7,320L1070.8,320L1070.8,320L1033.8,320L1033.8,320L996.9,320L996.9,320L960,320L960,320L923.1,320L923.1,320L886.2,320L886.2,320L849.2,320L849.2,320L812.3,320L812.3,320L775.4,320L775.4,320L738.5,320L738.5,320L701.5,320L701.5,320L664.6,320L664.6,320L627.7,320L627.7,320L590.8,320L590.8,320L553.8,320L553.8,320L516.9,320L516.9,320L480,320L480,320L443.1,320L443.1,320L406.2,320L406.2,320L369.2,320L369.2,320L332.3,320L332.3,320L295.4,320L295.4,320L258.5,320L258.5,320L221.5,320L221.5,320L184.6,320L184.6,320L147.7,320L147.7,320L110.8,320L110.8,320L73.8,320L73.8,320L36.9,320L36.9,320L0,320L0,320Z"></path></svg>